<svg xmlns="http://www.w3.org/2000/svg" viewBox="0 0 85 98"><path fill="#171419" fill-rule="nonzero" d="M 23 9 L 19 13 L 17 18 L 13 23 L 13 25 L 10 29 L 10 31 L 8 34 L 8 37 L 6 40 L 6 57 L 7 58 L 8 65 L 13 75 L 21 83 L 24 84 L 27 87 L 38 89 L 39 90 L 43 90 L 44 91 L 57 91 L 58 90 L 63 90 L 72 86 L 76 86 L 78 84 L 78 79 L 76 76 L 72 76 L 66 80 L 62 80 L 58 82 L 47 82 L 46 81 L 34 80 L 26 76 L 22 72 L 16 61 L 16 56 L 17 55 L 29 54 L 35 56 L 38 55 L 43 51 L 49 52 L 52 50 L 54 50 L 56 48 L 58 48 L 62 44 L 66 42 L 71 36 L 74 31 L 74 26 L 75 25 L 74 22 L 70 17 L 58 11 L 54 11 L 50 7 L 33 6 Z M 66 24 L 66 30 L 65 32 L 57 39 L 48 44 L 45 44 L 36 47 L 21 47 L 20 48 L 15 48 L 14 47 L 14 42 L 17 35 L 17 30 L 19 26 L 23 23 L 23 21 L 28 16 L 33 16 L 34 15 L 37 15 L 41 12 L 45 12 L 49 14 L 52 14 L 53 17 L 58 21 L 64 22 Z"/></svg>
