<svg xmlns="http://www.w3.org/2000/svg" viewBox="0 0 276 1000" width="276" height="1000"><path d="M 107 452 L 107 463 L 106 464 L 94 464 L 94 489 L 106 489 L 107 490 L 107 553 L 118 553 L 119 554 L 119 591 L 131 591 L 132 592 L 132 655 L 144 655 L 145 656 L 145 706 L 157 706 L 158 707 L 158 744 L 169 744 L 170 745 L 170 757 L 182 757 L 183 758 L 183 769 L 208 769 L 208 758 L 209 757 L 220 757 L 220 719 L 209 719 L 208 718 L 208 681 L 196 681 L 195 680 L 195 617 L 183 617 L 182 616 L 182 566 L 170 566 L 169 565 L 169 503 L 158 503 L 157 502 L 157 464 L 145 464 L 144 463 L 144 452 Z M 94 260 L 94 272 L 93 273 L 81 273 L 81 285 L 80 286 L 68 286 L 68 298 L 67 299 L 55 299 L 55 336 L 67 336 L 68 337 L 68 349 L 93 349 L 94 350 L 94 361 L 131 361 L 131 350 L 132 349 L 144 349 L 144 299 L 132 299 L 131 298 L 131 286 L 119 286 L 118 285 L 118 273 L 107 273 L 106 272 L 106 260 Z" fill="#211d22" fill-rule="evenodd"/></svg>
